<svg xmlns="http://www.w3.org/2000/svg" width="300" height="300" version="1.0" viewBox="0 0 225 225"><path d="M100.5 27.5C93.6 29 87 31.9 87 33.4c0 .6 5.7 6.9 12.8 13.9L112.5 60l12.8-12.8c7-7 12.7-13.2 12.7-13.8 0-1.6-8.4-5-15.4-6.3-7.6-1.4-14.5-1.3-22.1.4zM76.2 40.7c-4.3 4.4-8.1 9.4-10.5 13.9l-3.6 7 4.2 4.4 4.2 4.5-4.1-3.9c-3.1-2.8-4.4-3.4-5-2.5-.4.7-1 6.3-1.2 12.4-.4 10.5-.6 11.2-3.4 14.4-2.9 3.2-3 3.7-2.3 9.5.4 4.1 1.3 6.8 2.7 8.3 1.2 1.3 2.4 2.3 2.8 2.3 2.1 0 6-20.8 6-32.3 0-3.4.4-6.8.9-7.6 1.8-2.7 2.5 1.4 2.9 16.2.4 12.9.6 14.6 1.9 13.5 1.2-1 1.4-3.6 1.1-14.4-.2-8.3-.8-13.7-1.6-14.6-.6-.8-.9-1.7-.6-2 .3-.4 0-2.4-.7-4.6-1-3.6-.9-4.3 1-7 2.5-3.6 13.1-11.8 18.1-14 1.9-.9 3.7-1.8 3.9-1.9.8-.6-7.3-8.3-8.6-8.3-.7 0-4.4 3-8.1 6.7zM135.5 38c-2.1 2.2-3.7 4.1-3.4 4.3.2.1 2 1 3.9 1.9 5 2.2 15.6 10.4 18.1 14 1.9 2.7 2 3.4 1 7-.7 2.2-1 4.2-.7 4.6.3.3 0 1.2-.6 2-.8.9-1.4 6.3-1.6 14.6-.3 10.8-.1 13.4 1.1 14.4 1.3 1.1 1.5-.6 1.9-13.5.4-14.8 1.1-18.9 2.9-16.2.5.8.9 4.2.9 7.6 0 11.5 3.9 32.3 6 32.3.4 0 1.6-1 2.8-2.3 1.4-1.5 2.3-4.2 2.7-8.3.7-5.8.6-6.3-2.3-9.5-2.8-3.2-3-3.9-3.4-14.4-.2-6.1-.8-11.7-1.2-12.4-.6-.9-1.9-.3-5 2.5l-4.1 3.9 4.2-4.5 4.2-4.4-3.6-7c-3.7-7.1-15.9-20.6-18.6-20.6-.7 0-3 1.8-5.2 4zM97.6 56.6c2 7.6 3.7 14 3.8 14.1.1.1 2.6-2.1 5.4-5l5.2-5.3-8.9-8.8-9-8.9 3.5 13.9zM116.1 57.4l-14.3 14.3.7 4.2.7 4.1h18.6l.7-4.1c.7-4 .5-4.3-4.6-9.8l-5.4-5.6 5.6 5.3 5.6 5.3 3.5-14c2-7.8 3.5-14.1 3.4-14.1-.1 0-6.6 6.5-14.5 14.4zM71.3 102.1c-1.7 1.7-1.7 15.6 0 18.9 1.5 3.1 10.1 6.7 18 7.6l5.5.7 4.6-4.6c2.5-2.4 4.6-4.8 4.6-5.1 0-.3-1.3-.6-2.8-.6-4 0-17.8-3.7-22.3-6s-5.2-3.3-5.9-8.3c-.4-3.1-.7-3.6-1.7-2.6zm19.6 17.7c3.9.9 7.1 2 7.1 2.4 0 .4-.8 1.4-1.7 2.4-3.2 3.1-20-.3-22.3-4.7-.6-1-1-2.9-1-4.3v-2.5l5.5 2.5c3 1.4 8.6 3.3 12.4 4.2zM152 103.9c0 4.5-1.5 6.8-5.9 9-4.5 2.4-18.3 6.1-22.3 6.1-1.5 0-2.8.3-2.8.6s2.1 2.7 4.6 5.1l4.6 4.6 5.5-.7c7.9-.9 16.5-4.5 18-7.6 1.9-3.7 1.7-17.4-.2-19-1.3-1.1-1.5-.8-1.5 1.9zm-.4 14.8c-1.3 5-19.2 9.6-22.9 5.9-.9-1-1.7-2-1.7-2.4 0-.4 3.2-1.5 7-2.4 3.9-.9 9.4-2.8 12.3-4.1 5.6-2.6 6.5-2.1 5.3 3zM55 112.7v4.6l2.5-2.3 2.5-2.4-2.2-2.3c-1.2-1.3-2.3-2.3-2.5-2.3-.2 0-.3 2.1-.3 4.7zM167.2 110.3l-2.2 2.3 2.5 2.4 2.5 2.3v-4.6c0-2.6-.1-4.7-.3-4.7-.2 0-1.3 1-2.5 2.3zM56.5 117c-1.6 1.7-1.7 3.1-1.1 10.6l.6 8.7 6.5 5.9c5.7 5.2 6.5 6.4 6.5 9.6v3.6l3.6-3.5c3.5-3.4 3.8-4.6 1.9-9.4-.7-1.8-.5-1.7 1.9.4 1.9 1.8 2.9 2.2 3.7 1.4.8-.8 0-2.1-2.8-4.7-2.1-1.9-4.1-3.6-4.4-3.6-1.1 0-8.8-10.4-11.7-15.9-2.8-5.1-2.9-5.1-4.7-3.1zM165.6 116.8c-1.8 5.7-10 16.2-18 23-2.8 2.5-3.5 3.7-2.7 4.5.8.8 1.8.4 3.7-1.4 2.4-2.1 2.6-2.2 1.9-.4-1.9 4.8-1.6 6 1.9 9.4l3.6 3.5v-3.6c0-3.1.8-4.4 6.5-9.7l6.5-6 .6-8.8c.6-8 .5-9-1.4-10.6-2-1.8-2-1.8-2.6.1zM104.5 121c-.3.5 0 1.3.8 1.6 2.3.9 15.2 0 15.2-1.1 0-1.4-15.1-1.9-16-.5zM80.7 144.7c-.4.3 1.3 2.7 3.7 5.3 3.6 3.9 4.6 5.9 6 11.8.9 3.9 1.6 8.2 1.6 9.6 0 3.5-1.8 7.8-3.1 7.4-.7-.2-3.3-6.4-5.8-13.8-2.6-7.4-5-14.1-5.5-14.8-.6-1.1-1.8-.5-4.7 2.4-3.7 3.6-3.9 4.2-3.9 9.7 0 5.9.1 6.1 8.1 16.8 4.5 6 8.4 10.9 8.8 10.9.4 0 2.6-1.9 4.9-4.3 3.9-4 4.2-4.6 4.2-10V170h5.8c3.2 0 6.3-.5 7-1.2.9-.9 1.2-.9 1.2 0 0 .7 1.4 1.2 3.5 1.2s3.5-.5 3.5-1.2c0-.9.3-.9 1.2 0 .7.7 3.8 1.2 7 1.2h5.8v5.7c0 5.4.3 6 4.2 10 2.3 2.4 4.5 4.3 4.9 4.3.4 0 4.3-4.9 8.8-10.9 8-10.7 8.1-10.9 8.1-16.8 0-5.5-.2-6.1-3.9-9.7-2.9-2.9-4.1-3.5-4.7-2.4-.5.7-2.9 7.4-5.5 14.8-2.5 7.4-5.1 13.6-5.8 13.8-1.9.6-3.3-5-2.6-10.7 1.2-9.2 3.2-14.2 7.5-18.6 3-3.1 3.8-4.5 2.9-5-2.3-1.5-9.6 7.6-11.4 14.1-.9 3.3-1.8 6.5-2 7.1-.4 1.2-3.6 1.5-18 1.5s-17.6-.3-18-1.5c-.2-.6-1.1-3.8-2-7-1.1-4.1-2.9-7.2-5.7-10.3-4.1-4.4-4.9-4.9-6.1-3.7z"/><path d="m90.6 186.9-3.9 4 2.4 3c3.5 4.4 6.7 5.1 23.4 5.1s19.9-.7 23.4-5.1l2.4-3-3.9-4c-4.4-4.5-5-4.7-5.7-1.9-.5 1.9-1.4 2-16.2 2-14.8 0-15.7-.1-16.2-2-.7-2.8-1.3-2.6-5.7 1.9zM52.4 214.1c-.3.6-.1 1.5.6 1.9 1 .6.9.9-.1 1.3s-.9.6.4.6c1.9.1 2.3-1.4.7-2.4-.6-.4-.8-1.1-.5-1.6.4-.5.4-.9.1-.9-.3 0-.8.5-1.2 1.1zM57.1 213.7c-.2 2 1.1 4.3 2 3.7.5-.3.9-1.3.9-2.2 0-1.4-.2-1.4-.9-.3-.7 1.1-1 1-1.4-.5-.2-1-.5-1.4-.6-.7zM63.7 213.7c-1.3 1.2-.7 4.3.8 4.3.8 0 1.5-.5 1.5-1.1 0-.5-.5-.7-1.2-.3-.8.5-.9 0-.6-1.4.6-2.3.5-2.6-.5-1.5zM78.7 213.6c-.4.4-.7 1.7-.7 2.8 0 1.9.1 1.9 1.7.3 1.2-1.1 1.4-2 .7-2.7-.6-.6-1.3-.7-1.7-.4zM90.7 213.7c-1.3 1.2-.7 4.3.8 4.3.8 0 1.5-.5 1.5-1.1 0-.5-.5-.7-1.2-.3-.8.5-.9 0-.6-1.4.6-2.3.5-2.6-.5-1.5zM105.7 213.7c-1.3 1.2-.7 4.3.8 4.3.8 0 1.5-.5 1.5-1.1 0-.5-.4-.7-1-.4-.5.3-1-.1-1-1 0-1 .5-1.3 1.2-.9s.8.3.4-.4c-.8-1.4-1-1.4-1.9-.5zM111.4 215.1c.1 2.8 2.2 3.6 2.2.8 0-1-.3-1.6-.7-1.3-.4.2-.9-.2-1.2-.8-.2-.7-.4-.1-.3 1.3zM117 215.5c0 3.2.6 3.2 1.2 0 .3-1.4.1-2.5-.3-2.5-.5 0-.9 1.1-.9 2.5zM131.7 213.7c-1 .9-.9 4.3.1 4.3.4 0 .8-1.1.8-2.5 0-2.8 0-2.8-.9-1.8zM137 215c0 1.9.3 2.1 1.2 1.2.9-.9.9-1.5 0-2.4-.9-.9-1.2-.7-1.2 1.2zM142.9 213.2c-.6 1.2-.5 4.8.1 4.8.4 0 .7-1.1.6-2.5-.1-2.2-.3-3-.7-2.3zM150.2 216c0 1.9.2 2.7.5 1.7.2-.9.2-2.5 0-3.5-.3-.9-.5-.1-.5 1.8zM162.7 213.7c-1 .9-.9 4.3.1 4.3.4 0 .8-1.1.8-2.5 0-2.8 0-2.8-.9-1.8zM173.4 214.5c-.3.8-.4 2-.2 2.7.3.7.7.1 1-1.5.6-2.9.1-3.6-.8-1.2zM178.1 215.4c-.1 1.6 0 2.7.2 2.5.1-.2.9-1.3 1.7-2.3.8-1.1 1-1.7.3-1.3-.6.4-1.4.1-1.6-.5-.3-.7-.6 0-.6 1.6zM188.6 214.6c-.9 2.4-.7 3.1.9 3.1.8 0 1.5-.4 1.5-.9 0-.4-.4-.8-1-.8-.5 0-.7-.7-.4-1.5.4-.8.4-1.5.1-1.5-.3 0-.8.7-1.1 1.6zM194.4 214.5c-.3.8-.4 2-.2 2.7.3.7.7.1 1-1.5.6-2.9.1-3.6-.8-1.2zM199.7 213.7c-1 .9-.9 4.3.1 4.3.4 0 .8-1.1.8-2.5 0-2.8 0-2.8-.9-1.8zM22.1 215.6c0 1.1.3 1.4.6.6.3-.7.2-1.6-.1-1.9-.3-.4-.6.2-.5 1.3zM27 215.5c0 .8.5 1.5 1 1.5.6 0 1-.7 1-1.5s-.4-1.5-1-1.5c-.5 0-1 .7-1 1.5zM32 215.8c0 1.2.4 2.2.9 2.2 1 0 .9-2.6-.2-3.6-.4-.4-.7.2-.7 1.4zM38.2 216c0 1.4.2 1.9.5 1.2.2-.6.2-1.8 0-2.5-.3-.6-.5-.1-.5 1.3zM84.1 214.6c-.1.6.6 1.7 1.4 2.4 1.3 1 1.5.9 1.5-1.1 0-1.7-.3-2-.9-1-.7 1.1-.9 1.1-1.4 0-.3-.8-.6-.9-.6-.3zM157.7 215.4c-.4 1-.5 2.1-.2 2.4.9.9 1.7-.6 1.3-2.5-.3-1.7-.4-1.7-1.1.1zM167 215.4c0 .8.4 1.7.8 2 .4.2.8-.4.8-1.5 0-1-.4-1.9-.8-1.9s-.8.6-.8 1.4zM183 216c0 1.1.4 2 .9 2s.7-.9.4-2c-.3-1.1-.7-2-.9-2-.2 0-.4.9-.4 2z"/></svg>